<?xml version="1.0" standalone="no"?>
<!DOCTYPE svg PUBLIC "-//W3C//DTD SVG 20010904//EN"
 "http://www.w3.org/TR/2001/REC-SVG-20010904/DTD/svg10.dtd">
<svg version="1.0" xmlns="http://www.w3.org/2000/svg"
 width="225.000000pt" height="225.000000pt" viewBox="0 0 225.000000 225.000000"
 preserveAspectRatio="xMidYMid meet">
<metadata>
Created by potrace 1.11, written by Peter Selinger 2001-2013
</metadata>
<g transform="translate(0.000000,225.000000) scale(0.100000,-0.100000)"
fill="#000000" stroke="none">
<path d="M991 2239 c-435 -54 -805 -360 -934 -774 -39 -126 -50 -200 -50 -340
0 -312 107 -570 327 -791 219 -220 478 -327 791 -327 313 0 571 107 791 327
163 162 260 343 309 571 21 97 24 320 6 415 -46 236 -147 427 -315 596 -161
162 -347 263 -570 308 -94 20 -263 27 -355 15z m355 -590 c156 -18 271 -57
374 -125 54 -36 100 -85 100 -107 0 -2 -14 -7 -31 -11 -47 -9 -97 -44 -130
-89 -26 -36 -29 -48 -29 -117 0 -45 -5 -83 -12 -93 -12 -16 -51 -17 -503 -15
l-490 3 -7 82 c-4 45 -14 98 -24 118 -21 45 -73 89 -125 104 -53 16 -52 42 5
97 141 135 499 198 872 153z m-828 -362 c36 -36 36 -38 42 -133 4 -79 8 -98
24 -110 17 -12 107 -14 543 -14 614 0 563 -10 563 115 0 122 41 176 138 183
47 3 63 0 91 -20 49 -33 73 -70 78 -119 5 -56 -27 -114 -77 -140 -60 -31 -60
-32 -60 -144 0 -57 -3 -111 -6 -120 -9 -24 -58 -45 -103 -45 l-40 0 -3 -56
c-5 -99 -61 -102 -87 -5 l-14 51 -482 0 -483 0 -18 -57 c-30 -93 -84 -84 -84
13 l0 54 -50 0 c-40 0 -56 5 -75 24 -28 28 -41 109 -31 191 7 58 6 59 -53 98
-77 50 -99 122 -59 196 32 60 76 83 151 78 51 -3 62 -8 95 -40z"/>
<path d="M883 1354 c-15 -23 -15 -29 -2 -52 21 -37 43 -48 76 -36 65 23 48
114 -22 114 -26 0 -39 -6 -52 -26z"/>
<path d="M1267 1362 c-34 -38 -9 -102 39 -102 54 0 85 68 48 104 -21 22 -67
20 -87 -2z"/>
</g>
</svg>
